<svg id="Layer_1" data-name="Layer 1" xmlns="http://www.w3.org/2000/svg" xmlns:xlink="http://www.w3.org/1999/xlink" viewBox="0 0 1916.41 236.34"><defs><style>.cls-1{fill:#333;}.cls-2{fill:url(#linear-gradient);}.cls-3{fill:url(#linear-gradient-2);}</style><linearGradient id="linear-gradient" x1="57.39" y1="182.09" x2="386.57" y2="182.09" gradientUnits="userSpaceOnUse"><stop offset="0" stop-color="#f5c153"/><stop offset="1" stop-color="#ff5313"/></linearGradient><linearGradient id="linear-gradient-2" x1="3.58" y1="104.9" x2="425.27" y2="104.9" xlink:href="#linear-gradient"/></defs><title>logo CBF Grey</title><path class="cls-1" d="M550.44,104.42l-34.18,1.64c.14-2.28.22-4,.22-5.28q0-11.32-5.7-19.18t-17.2-7.86q-18.85,0-27,22.62a130.18,130.18,0,0,0-8.16,44.32q0,16.11,6.9,23.5t17.75,7.39q22,0,30.24-27.6l30.79,5.36q-17.1,51.06-63.66,51-28.81,0-44-19t-15.23-45.82q0-35.79,19.83-63t52.7-27.21q23.78,0,39.77,14.41T550.44,104.42Z" transform="translate(-3.58 -0.2)"/><path class="cls-1" d="M648.22,197.65H616l11.29-67.6a61.56,61.56,0,0,0,1-9.53,10.86,10.86,0,0,0-3.28-8.06,11.68,11.68,0,0,0-8.54-3.23,17.5,17.5,0,0,0-11.34,4,21.61,21.61,0,0,0-7,10.13q-2.08,6.19-4.6,21.1l-8.89,53.24H552.47l25-149.55h32.21l-9.1,54.46q11.49-18.3,31.2-18.3,12.81,0,21.19,7.77t8.37,20.48q0,6.67-3.27,26.41Z" transform="translate(-3.58 -0.2)"/><path class="cls-1" d="M779.75,147.47h-72a75.44,75.44,0,0,0-.66,8.22q0,10.84,5.48,16.26A18.27,18.27,0,0,0,726,177.38q15.66,0,22.24-17.75l27.38,4.6a54,54,0,0,1-19,26.13q-13.36,10-32.54,10-22,0-35.71-14.22t-13.7-37.11a70,70,0,0,1,16.16-45.32Q707,83.82,733.62,83.81q22.36,0,34.79,14.44t12.44,35.88A114.25,114.25,0,0,1,779.75,147.47Zm-69.68-18.41h40.21a46.62,46.62,0,0,0,.54-6.65q0-8.73-5-13.42a16.89,16.89,0,0,0-12-4.68Q715.43,104.31,710.07,129.06Z" transform="translate(-3.58 -0.2)"/><path class="cls-1" d="M855.29,197.65q-.22-4.93-.22-6.9a60.89,60.89,0,0,1,.66-7.13c.29-2,.47-3.69.55-5.15q-10.41,21.93-35.83,21.91-14.69,0-24.05-8.64A28.22,28.22,0,0,1,787,170.09q0-18.17,16.32-29.16t59.16-13a28.34,28.34,0,0,0,2-10,12.43,12.43,0,0,0-4-9.7q-3.94-3.55-10.63-3.56-16.75,0-22.35,16.87l-29.25-3.28q11.73-34.08,54-34.07,21.38,0,32.49,8.87a28.44,28.44,0,0,1,11.12,23.33q0,5.27-3.08,24.11L888,169.16q-2.28,13.82-2.29,21.14a52.89,52.89,0,0,0,.55,7.35Zm4.93-54q-39.44,1.43-39.44,22.72a14,14,0,0,0,3.45,9.67,11.77,11.77,0,0,0,9.26,3.88q9.42,0,16.76-9.06T860.22,143.63Z" transform="translate(-3.58 -0.2)"/><path class="cls-1" d="M933.68,236.54H901.47l25.2-150.32h29.27l-3.31,20q12.14-21.57,30.73-21.58,16.3,0,25.55,12.6t9.24,33.2q0,28.15-13.3,48.81T971.16,200a31.34,31.34,0,0,1-17.9-5.27,25.23,25.23,0,0,1-10.46-13.37Zm28.66-58.62q12.07,0,17.51-18.18a120.65,120.65,0,0,0,5.43-34.51,22.48,22.48,0,0,0-3.56-12.71c-2.39-3.58-6-5.37-10.71-5.37q-6.69,0-12.52,6t-8.67,22.51Q947,152.18,947,158q0,9.76,4.55,14.86A14,14,0,0,0,962.34,177.92Z" transform="translate(-3.58 -0.2)"/><path class="cls-1" d="M1084.06,48.1l-8.92,53.24q10.69-17.62,28.3-17.64,15.51,0,24.74,12t9.23,34.13q0,28.17-14,49.19t-37.21,21q-22.86,0-32.82-20.05a87.13,87.13,0,0,0-8.66,17.64h-17.86a152.43,152.43,0,0,0,3.84-20.38q1.42-11.07,5.81-37.14l15.34-92Zm-2.77,129.71q12.33,0,18.12-18a114.93,114.93,0,0,0,5.79-35.39q0-8.33-3.88-13.36a12.54,12.54,0,0,0-10.53-5q-13.1,0-18.67,18.46a121.41,121.41,0,0,0-5.56,35q0,8.21,3.82,13.25T1081.29,177.81Z" transform="translate(-3.58 -0.2)"/><path class="cls-1" d="M1253,147.47h-72a75.44,75.44,0,0,0-.66,8.22q0,10.84,5.48,16.26a18.25,18.25,0,0,0,13.36,5.43q15.68,0,22.25-17.75l27.38,4.6a54,54,0,0,1-19,26.13q-13.37,10-32.54,10-22,0-35.71-14.22T1148,149.05a70,70,0,0,1,16.16-45.32q16.15-19.91,42.78-19.92,22.35,0,34.79,14.44t12.43,35.88A112.06,112.06,0,0,1,1253,147.47Zm-69.67-18.41h40.2a45.45,45.45,0,0,0,.56-6.65q0-8.73-5-13.42a16.91,16.91,0,0,0-12-4.68Q1188.73,104.31,1183.37,129.06Z" transform="translate(-3.58 -0.2)"/><path class="cls-1" d="M1356.75,115.59l-24.88,4.82q-3.06-15.55-21.91-15.56a15.82,15.82,0,0,0-10.29,3.3c-2.71,2.2-4.06,4.7-4.06,7.48q0,4.73,3.56,6.82c2.36,1.39,7.32,2.7,14.84,3.92q19.83,3.13,29.48,10.75t9.64,23.28q0,16.53-12.93,28.15t-35.71,11.62q-19.07,0-33.31-8.22t-16.87-25.41l27.5-3.18q2.19,15.76,24.1,15.77,9,0,13.53-3.45t4.55-8.17q0-4.72-3.51-6.91t-15-4.17q-23.89-4-31.73-12.91a30.87,30.87,0,0,1-7.83-21.14q0-16.55,11.67-27.55t32.7-11Q1349.3,83.81,1356.75,115.59Z" transform="translate(-3.58 -0.2)"/><path class="cls-1" d="M1442.27,111.75H1415.8l-7.52,44.7a67.74,67.74,0,0,0-1.19,9.53q0,9,14.46,9a64.47,64.47,0,0,0,11.62-.88L1429,198.53a138.69,138.69,0,0,1-22.13,1.85q-33.19,0-33.2-26.94,0-7.45,3.51-25.1l7.45-36.59h-17.2l4.28-25.53h18.63l7.54-30.67,28.21-.77-5.37,31.44h25.81Z" transform="translate(-3.58 -0.2)"/><path class="cls-1" d="M1513.84,111.53h-21.69l-14.23,86.12h-32.21l14.4-86.12H1447l3.06-25.31h14.24q3.2-25,14.86-34.94t33.13-10A88.76,88.76,0,0,1,1526,42.4l-1.86,25.75a68.86,68.86,0,0,0-9.86-.77q-7.35,0-12.06,3.4t-5.92,15.44H1518Z" transform="translate(-3.58 -0.2)"/><path class="cls-1" d="M1580.09,197.65q-.22-4.93-.22-6.9a60.89,60.89,0,0,1,.66-7.13c.29-2,.47-3.69.54-5.15q-10.39,21.93-35.82,21.91-14.68,0-24-8.64a28.22,28.22,0,0,1-9.36-21.65q0-18.17,16.32-29.16t59.16-13a28.54,28.54,0,0,0,2-10,12.42,12.42,0,0,0-3.94-9.7q-3.94-3.55-10.63-3.56-16.76,0-22.35,16.87l-29.25-3.28q11.73-34.08,54-34.07,21.38,0,32.48,8.87t11.13,23.33q0,5.27-3.07,24.11l-4.83,28.59q-2.29,13.82-2.29,21.14a52.83,52.83,0,0,0,.54,7.35Zm4.93-54q-39.43,1.43-39.44,22.72A14,14,0,0,0,1549,176a11.75,11.75,0,0,0,9.25,3.88q9.43,0,16.77-9.06T1585,143.63Z" transform="translate(-3.58 -0.2)"/><path class="cls-1" d="M1708.21,116.9q-9,0-14.79,2.69t-10.69,9.75a49.32,49.32,0,0,0-7.13,15.82q-2.24,8.78-5.29,28.38l-4,24.11h-33.54l18.63-111.43h31.09l-4.16,25.64q4.92-11.39,9.83-17.36t10.11-7.89a39.17,39.17,0,0,1,13.38-1.92Z" transform="translate(-3.58 -0.2)"/><path class="cls-1" d="M1816.29,147.47h-72a75.44,75.44,0,0,0-.66,8.22q0,10.84,5.48,16.26a18.25,18.25,0,0,0,13.36,5.43q15.68,0,22.25-17.75l27.38,4.6a54,54,0,0,1-19,26.13q-13.37,10-32.54,10-22,0-35.71-14.22t-13.7-37.11a70,70,0,0,1,16.16-45.32q16.15-19.91,42.78-19.92,22.35,0,34.79,14.44t12.43,35.88A112.06,112.06,0,0,1,1816.29,147.47Zm-69.67-18.41h40.2a45.45,45.45,0,0,0,.56-6.65q0-8.73-5-13.42a16.91,16.91,0,0,0-12-4.68Q1752,104.31,1746.62,129.06Z" transform="translate(-3.58 -0.2)"/><path class="cls-1" d="M1920,115.59l-24.88,4.82q-3.06-15.55-21.91-15.56a15.82,15.82,0,0,0-10.29,3.3c-2.71,2.2-4.06,4.7-4.06,7.48,0,3.15,1.19,5.42,3.55,6.82s7.33,2.7,14.85,3.92q19.83,3.13,29.48,10.75t9.64,23.28q0,16.53-12.93,28.15t-35.71,11.62q-19.07,0-33.31-8.22t-16.87-25.41l27.5-3.18q2.19,15.76,24.1,15.77,9,0,13.53-3.45t4.55-8.17q0-4.72-3.51-6.91t-15-4.17q-23.89-4-31.73-12.91a30.87,30.87,0,0,1-7.83-21.14q0-16.55,11.67-27.55t32.7-11Q1912.55,83.81,1920,115.59Z" transform="translate(-3.58 -0.2)"/><path class="cls-2" d="M57.39,235.4s135.67-1.07,227.2-76.4c21.6-17.77,47.89-29.4,75.83-30.71,10-.47,18.83.45,23.75,4a5.9,5.9,0,0,1,.35,9.22C364.15,159.34,256.36,244,57.39,235.4Z" transform="translate(-3.58 -0.2)"/><path class="cls-3" d="M346.35,22.35c-32.64,25.39-64.23,47.55-94.17,66.92l-232-2.16,9.18,12.68S146.65,113,186.67,128.87C78,190.05,3.58,209.59,3.58,209.59,231.05,210.46,425.27,8.37,425.27,8.37,423.17,1,413-.45,401.45.43,381.36,2,362.26,10,346.35,22.35Z" transform="translate(-3.58 -0.2)"/></svg>