<svg id="Layer_1" data-name="Layer 1" xmlns="http://www.w3.org/2000/svg" viewBox="0 0 791.31 338.47"><defs><style>.cls-1{fill:#21c6b9;}.cls-2{fill:#fa7603;}</style></defs><title>Untitled-1</title><path class="cls-1" d="M332.34,245.47a64.89,64.89,0,0,1-28-25.59q-9.75-16.57-9.74-38.54,0-30.47,11.5-54.08t31.18-36.57a77.88,77.88,0,0,1,43.72-13q22.38,0,34,11.5t11.6,30.35q0,12.65-4.46,20.31t-12.74,7.67q-5.81,0-9.12-2.7c-2.21-1.79-3.31-4.42-3.31-7.87a48.93,48.93,0,0,1,.83-6.84,53.29,53.29,0,0,0,1.24-10q0-18.84-20.1-18.85-13.68,0-26.11,8.91t-20.1,26.21q-7.67,17.31-7.66,41.13,0,24.87,13.88,38.44t41,13.57a112.69,112.69,0,0,0,27.24-3.42,211.39,211.39,0,0,0,30.57-10.46,14.58,14.58,0,0,1,5.18-1.25,5.58,5.58,0,0,1,5,2.49,11.42,11.42,0,0,1,1.66,6.42q0,12.65-13.68,18.65a141.79,141.79,0,0,1-30.56,9.43,162.4,162.4,0,0,1-30.15,3Q350.57,254.49,332.34,245.47Z" transform="translate(-6 -9.67)"/><path class="cls-1" d="M552.7,209.73a12.83,12.83,0,0,1,1.56,6.84c0,5.52-1.32,9.81-3.94,12.84a108.91,108.91,0,0,1-19.58,18,38.89,38.89,0,0,1-22.9,7.05q-10.56,0-15.95-6.12t-5.39-17.71q0-5.81,2.9-20.72,2.69-13.06,2.69-18c0-2.21-.76-3.32-2.27-3.32q-2.7,0-7.67,6.94a102.18,102.18,0,0,0-9.95,18.34,149.16,149.16,0,0,0-8.08,24q-3.93,16.58-19.48,16.58-6.21,0-8.18-4.46t-2-16.06q0-6.63.21-10.57l.21-16.57a359.07,359.07,0,0,1,6.52-66.52Q448,105.72,460.7,82.19t30.57-23.52q9.53,0,15.43,8.19t5.91,21.24q0,20.93-12.23,43.41T460.6,184q-.63,10.78-.62,22.18,6.84-17.61,15.23-28.7t16.57-15.85q8.19-4.77,15-4.77,13.45,0,13.47,13.47,0,8.08-4.56,29.22-3.94,18-3.94,23.82,0,8.29,6,8.29,4.14,0,9.84-5.07a166.24,166.24,0,0,0,15.23-16.48,7.29,7.29,0,0,1,5.6-2.9A4.77,4.77,0,0,1,552.7,209.73ZM478.63,89.86q-4.56,10.67-8.81,28.8a384,384,0,0,0-6.94,39.47,148.51,148.51,0,0,0,21.24-32.94q8.38-17.82,8.39-32.33c0-4.42-.49-7.8-1.45-10.15s-2.35-3.52-4.14-3.52Q483.19,79.19,478.63,89.86Z" transform="translate(-6 -9.67)"/><path class="cls-1" d="M634.14,209.73a12.93,12.93,0,0,1,1.55,6.84c0,5.52-1.31,9.81-3.94,12.84q-7.66,9.33-21.65,17.2a60.07,60.07,0,0,1-29.94,7.88q-21.76,0-33.78-11.82t-12-32.32a60.06,60.06,0,0,1,6-26.63,49.36,49.36,0,0,1,16.68-19.58,42,42,0,0,1,24.14-7.25q12,0,19.27,7.15t7.26,19.37A33.51,33.51,0,0,1,597.46,208q-10.26,10.25-34.71,16.26,5.18,9.54,19.69,9.53,9.31,0,21.24-6.52a70.05,70.05,0,0,0,20.61-17.1,7.3,7.3,0,0,1,5.6-2.9A4.8,4.8,0,0,1,634.14,209.73Zm-69.42-23.62q-5.28,8.91-5.28,21.55v.41q12.22-2.9,19.27-8.7t7-13.47a9,9,0,0,0-2.17-6.32,7.6,7.6,0,0,0-5.91-2.38Q570,177.2,564.72,186.11Z" transform="translate(-6 -9.67)"/><path class="cls-1" d="M622.84,245.16q-7.67-9.33-7.66-24.45a67.37,67.37,0,0,1,7.66-31.39,65.47,65.47,0,0,1,20.41-23.83q12.75-9,27-9c3,0,5.08.58,6.12,1.76s1.89,3.28,2.59,6.32a48.76,48.76,0,0,1,9.11-.83q10.15,0,10.16,7.25,0,4.35-3.11,20.72-4.77,23.84-4.77,33.15a7.52,7.52,0,0,0,1.56,5,5,5,0,0,0,4,1.86q3.93,0,9.53-5.07a178.64,178.64,0,0,0,15.13-16.48,7.27,7.27,0,0,1,5.59-2.9,4.8,4.8,0,0,1,4.25,2.49,12.93,12.93,0,0,1,1.55,6.84c0,5.52-1.31,9.81-3.94,12.84a104,104,0,0,1-18,17.82q-9.54,7.26-18.44,7.26a19.36,19.36,0,0,1-12.54-4.67,28.36,28.36,0,0,1-8.6-12.74q-10.77,17.4-27.14,17.41Q630.5,254.49,622.84,245.16Zm36.68-17q4.14-5.38,6-14.3l7.66-38.12a25.09,25.09,0,0,0-16.05,6.52A44,44,0,0,0,645.43,199a56.18,56.18,0,0,0-4.35,22q0,6.42,2.59,9.53a8.8,8.8,0,0,0,7.15,3.11Q655.37,233.56,659.52,228.17Z" transform="translate(-6 -9.67)"/><path class="cls-1" d="M789.75,221.23A66.79,66.79,0,0,1,769.65,245a47.26,47.26,0,0,1-26.84,9.54q-2.68,40-12.22,66.82t-28,26.83q-11.19,0-16.58-8.08t-5.39-22.38q0-20.31,9.33-47.34t28.8-59.58q0-30.24-.42-42.06a10.6,10.6,0,0,1,4.77-9.53,21,21,0,0,1,12.43-3.52q4.35,0,6.32,1.76c1.31,1.17,2,3.49,2.18,6.94s.07,6,.2,7.67q6.63-8.29,13.06-11.92A27.44,27.44,0,0,1,771,156.48a23,23,0,0,1,19,9.32q7.37,9.33,7.36,24.45A66.49,66.49,0,0,1,789.75,221.23ZM713.6,303.49q3.72-24.35,4.76-60.61a304.84,304.84,0,0,0-14.09,39.58q-5.17,18.85-5.18,31.7,0,6.63,1.56,10.15t3.62,3.53Q709.87,327.84,713.6,303.49Zm44-77.08a47.7,47.7,0,0,0,10-16.16A55.45,55.45,0,0,0,771.41,190q0-6.21-2.49-9.42a8,8,0,0,0-6.63-3.22q-7.45,0-18,15.75-.19,9.12-.2,26.73,0,9.54-.21,14.71A27.48,27.48,0,0,0,757.63,226.41Z" transform="translate(-6 -9.67)"/><path class="cls-2" d="M346.76,309.06q0,10.54-4.26,16.2t-12,5.67a12.29,12.29,0,0,1-10.3-5.19l-.54,4.39H308V269.29h13v21.43a11.85,11.85,0,0,1,9.41-4.24q7.81,0,12.07,5.75t4.26,16.16Zm-13.08-.85q0-6.16-1.61-8.8a5.38,5.38,0,0,0-4.93-2.63q-4.41,0-6.12,3.44v17q1.67,3.4,6.2,3.4c3.07,0,5-1.53,5.84-4.59A33.81,33.81,0,0,0,333.68,308.21Z" transform="translate(-6 -9.67)"/><path class="cls-2" d="M372.77,330.93q-9.64,0-15.6-5.89t-6-15.3v-1.11A26.78,26.78,0,0,1,353.59,297a17.65,17.65,0,0,1,7-7.78,20.52,20.52,0,0,1,10.83-2.76q8.82,0,13.93,5.61t5.11,15.63v5.18H364.48a9.72,9.72,0,0,0,3.06,5.67,9,9,0,0,0,6.12,2.06,11.61,11.61,0,0,0,9.67-4.44l6,7.21a16.75,16.75,0,0,1-6.91,5.49A22.86,22.86,0,0,1,372.77,330.93Zm-1.48-34.15q-5.71,0-6.81,7.77h13.16v-1a6.7,6.7,0,0,0-1.59-5A6.19,6.19,0,0,0,371.29,296.78Z" transform="translate(-6 -9.67)"/><path class="cls-2" d="M417.58,318.09a3.1,3.1,0,0,0-1.74-2.73,26,26,0,0,0-6.62-2.14,29.87,29.87,0,0,1-8.05-2.91,13.61,13.61,0,0,1-4.84-4.38,10.6,10.6,0,0,1-1.66-5.9,12,12,0,0,1,4.76-9.72q4.76-3.82,12.46-3.83,8.28,0,13.31,3.85a12.08,12.08,0,0,1,5,10.1H417.15c0-3.44-1.76-5.15-5.3-5.15a5.16,5.16,0,0,0-3.44,1.17,3.65,3.65,0,0,0-1.4,2.91,3.33,3.33,0,0,0,1.71,2.89,15.63,15.63,0,0,0,5.43,1.82,46.67,46.67,0,0,1,6.56,1.7q9.45,3.33,9.45,11.93a11.28,11.28,0,0,1-5.09,9.54q-5.1,3.69-13.18,3.69a22.32,22.32,0,0,1-9.6-2,16.19,16.19,0,0,1-6.58-5.39,12.41,12.41,0,0,1-2.36-7.17h12.19a5.23,5.23,0,0,0,1.94,4.34,7.82,7.82,0,0,0,4.76,1.36,6.14,6.14,0,0,0,4-1.11A3.57,3.57,0,0,0,417.58,318.09Z" transform="translate(-6 -9.67)"/><path class="cls-2" d="M451.44,276.62v10.66h6.89v9.27h-6.89v19.6a5.08,5.08,0,0,0,.85,3.37c.57.63,1.69,1,3.37,1a18.54,18.54,0,0,0,3.25-.24v9.55a23.74,23.74,0,0,1-7.35,1.15q-6.74,0-9.95-3.25t-3.21-9.86V296.55h-5.34v-9.27h5.34V276.62Z" transform="translate(-6 -9.67)"/><path class="cls-2" d="M486.08,330.13V296.55H480v-9.27h6.08v-3.41c0-4.89,1.4-8.67,4.22-11.37s6.75-4,11.84-4a25.55,25.55,0,0,1,6.11.83l0,9.83a11.54,11.54,0,0,0-3.21-.36q-5.93,0-5.92,5.23v3.29h8.16v9.27h-8.16v33.58Z" transform="translate(-6 -9.67)"/><path class="cls-2" d="M535.5,330.13a15,15,0,0,1-1.24-3.84,12,12,0,0,1-10.06,4.64,14.61,14.61,0,0,1-10.06-3.67,11.75,11.75,0,0,1-4.15-9.21c0-4.64,1.68-8.16,5-10.53s8.22-3.57,14.62-3.57h4v-2.27c0-3.95-1.67-5.93-5-5.93q-4.65,0-4.65,4.7H511a12,12,0,0,1,5.17-10.09q5.16-3.87,13.17-3.88t12.66,4q4.63,4,4.76,11v19q.07,5.91,1.78,9v.67Zm-8.17-8.71a7.2,7.2,0,0,0,4-1.07,6.7,6.7,0,0,0,2.3-2.41v-6.86h-3.79c-4.55,0-6.81,2.09-6.81,6.26a3.84,3.84,0,0,0,1.19,3A4.3,4.3,0,0,0,527.33,321.42Z" transform="translate(-6 -9.67)"/><path class="cls-2" d="M579.31,299.36,575,299q-6.15,0-7.89,4v27.13h-13V287.28H566.3l.43,5.5q3.28-6.3,9.17-6.3a12.4,12.4,0,0,1,3.64.48Z" transform="translate(-6 -9.67)"/><path class="cls-2" d="M603.53,330.93q-9.63,0-15.6-5.89t-6-15.3v-1.11A26.93,26.93,0,0,1,584.35,297a17.71,17.71,0,0,1,6.95-7.78,20.58,20.58,0,0,1,10.84-2.76q8.82,0,13.93,5.61t5.11,15.63v5.18H595.25a9.61,9.61,0,0,0,3.06,5.67,9,9,0,0,0,6.11,2.06,11.62,11.62,0,0,0,9.68-4.44l6,7.21a16.75,16.75,0,0,1-6.91,5.49A22.9,22.9,0,0,1,603.53,330.93Zm-1.47-34.15q-5.73,0-6.81,7.77h13.16v-1a6.7,6.7,0,0,0-1.59-5A6.22,6.22,0,0,0,602.06,296.78Z" transform="translate(-6 -9.67)"/><path class="cls-2" d="M648.34,318.09a3.1,3.1,0,0,0-1.74-2.73,25.85,25.85,0,0,0-6.61-2.14,29.74,29.74,0,0,1-8-2.91,13.53,13.53,0,0,1-4.84-4.38,10.61,10.61,0,0,1-1.67-5.9,11.93,11.93,0,0,1,4.77-9.72q4.75-3.82,12.46-3.83,8.28,0,13.31,3.85a12.1,12.1,0,0,1,5,10.1H647.92c0-3.44-1.77-5.15-5.3-5.15a5.19,5.19,0,0,0-3.45,1.17,3.64,3.64,0,0,0-1.39,2.91,3.34,3.34,0,0,0,1.7,2.89,15.77,15.77,0,0,0,5.44,1.82,46.67,46.67,0,0,1,6.56,1.7q9.43,3.33,9.44,11.93a11.26,11.26,0,0,1-5.09,9.54q-5.08,3.69-13.17,3.69a22.32,22.32,0,0,1-9.6-2,16.13,16.13,0,0,1-6.58-5.39,12.41,12.41,0,0,1-2.36-7.17h12.19a5.23,5.23,0,0,0,1.93,4.34,7.84,7.84,0,0,0,4.76,1.36,6.15,6.15,0,0,0,4-1.11A3.56,3.56,0,0,0,648.34,318.09Z" transform="translate(-6 -9.67)"/><path class="cls-2" d="M240.92,244.6a104.35,104.35,0,1,1,0-147.58c12.5,12.5,66.75-13.55,40.15-40.15a161.14,161.14,0,1,0,0,227.88C307.67,258.15,253.42,232.1,240.92,244.6Z" transform="translate(-6 -9.67)"/><path class="cls-1" d="M217.71,143.12l11-19.81c8.79-15.83,3-21.6-12.81-12.8l-19.8,11c-1.78,1-3.56,2.13-5.32,3.34a81.68,81.68,0,0,0-10.55,8.67.16.16,0,0,1-.16,0l-27.33-8.71L118.4,113.9a.16.16,0,0,0-.15,0L104.1,124.85l-.66.5a166.74,166.74,0,0,1,57.9,31.74.16.16,0,0,1,0,.23L157.28,163l-16.4,22.6-6,8.32a.18.18,0,0,1-.17.07l-20.43-4.33a.17.17,0,0,0-.15,0l-6.84,6.83a.17.17,0,0,0,0,.26A105,105,0,0,1,123.64,209a.18.18,0,0,1,0,.23h0a4.51,4.51,0,0,0,6.3,6.3h0a.17.17,0,0,1,.22,0,105,105,0,0,1,12.29,16.36.17.17,0,0,0,.26,0l6.83-6.83a.17.17,0,0,0,.05-.15l-4.33-20.44a.17.17,0,0,1,.07-.17l8.32-6,22.6-16.4,5.63-4.1a.18.18,0,0,1,.23,0,166.68,166.68,0,0,1,31.73,57.91l.51-.66L225.29,221a.14.14,0,0,0,0-.15l-10.95-34.34-8.71-27.33a.14.14,0,0,1,0-.16,81.68,81.68,0,0,0,8.67-10.55C215.58,146.67,216.72,144.9,217.71,143.12Z" transform="translate(-6 -9.67)"/></svg>