<svg id="Layer_1" data-name="Layer 1" xmlns="http://www.w3.org/2000/svg" xmlns:xlink="http://www.w3.org/1999/xlink" viewBox="0 0 257.71 31.78"><defs><style>.cls-1{fill:#21c6b9;}.cls-2{fill:url(#linear-gradient);}.cls-3{fill:url(#linear-gradient-2);}</style><linearGradient id="linear-gradient" x1="10.82" y1="30.75" x2="55.09" y2="30.75" gradientUnits="userSpaceOnUse"><stop offset="0" stop-color="#f5c153"/><stop offset="1" stop-color="#ff5313"/></linearGradient><linearGradient id="linear-gradient-2" x1="3.58" y1="20.37" x2="60.29" y2="20.37" xlink:href="#linear-gradient"/></defs><title>logo CBF</title><path class="cls-1" d="M77.12,20.3l-4.59.22c0-.3,0-.54,0-.71a4.25,4.25,0,0,0-.76-2.57,2.65,2.65,0,0,0-2.31-1.06q-2.53,0-3.64,3a17.55,17.55,0,0,0-1.09,6,4.57,4.57,0,0,0,.92,3.16,3.14,3.14,0,0,0,2.39,1c2,0,3.33-1.23,4.07-3.71l4.14.72q-2.3,6.87-8.56,6.87a7.13,7.13,0,0,1-5.92-2.55,9.54,9.54,0,0,1-2-6.17A14,14,0,0,1,62.4,16a8.35,8.35,0,0,1,7.09-3.66,7.72,7.72,0,0,1,5.35,1.94Q77,16.24,77.12,20.3Z" transform="translate(-3.58 -6.29)"/><path class="cls-1" d="M90.27,32.84H85.94l1.52-9.09a8,8,0,0,0,.13-1.28,1.47,1.47,0,0,0-.44-1.08A1.58,1.58,0,0,0,86,21a2.34,2.34,0,0,0-1.52.53,2.94,2.94,0,0,0-.94,1.37,21,21,0,0,0-.62,2.83l-1.19,7.16H77.4l3.35-20.11h4.34l-1.23,7.32a4.75,4.75,0,0,1,4.2-2.46,4,4,0,0,1,2.85,1.05A3.57,3.57,0,0,1,92,21.39a25.84,25.84,0,0,1-.44,3.55Z" transform="translate(-3.58 -6.29)"/><path class="cls-1" d="M108,26.09H98.28a10.14,10.14,0,0,0-.09,1.11,3,3,0,0,0,.74,2.19,2.48,2.48,0,0,0,1.79.73,3.09,3.09,0,0,0,3-2.39l3.69.62a7.27,7.27,0,0,1-2.55,3.51,7.09,7.09,0,0,1-4.38,1.35,6.39,6.39,0,0,1-4.8-1.91,6.89,6.89,0,0,1-1.84-5A9.42,9.42,0,0,1,96,20.21a7.07,7.07,0,0,1,5.76-2.68,5.84,5.84,0,0,1,4.67,1.94,7.14,7.14,0,0,1,1.68,4.83A15,15,0,0,1,108,26.09Zm-9.37-2.47H104a7.7,7.7,0,0,0,.07-.9,2.34,2.34,0,0,0-.67-1.8,2.28,2.28,0,0,0-1.61-.63C100.13,20.29,99.07,21.4,98.59,23.62Z" transform="translate(-3.58 -6.29)"/><path class="cls-1" d="M118.12,32.84q0-.66,0-.93a8.07,8.07,0,0,1,.09-.95c0-.27.06-.5.07-.7a4.91,4.91,0,0,1-4.82,2.95,4.6,4.6,0,0,1-3.23-1.16,3.81,3.81,0,0,1-1.26-2.91,4.55,4.55,0,0,1,2.19-3.93q2.2-1.47,8-1.74a3.74,3.74,0,0,0,.26-1.34,1.64,1.64,0,0,0-.53-1.3,2,2,0,0,0-1.43-.48,2.94,2.94,0,0,0-3,2.27l-3.93-.44q1.58-4.59,7.26-4.59a6.87,6.87,0,0,1,4.37,1.2,3.82,3.82,0,0,1,1.49,3.13,28.29,28.29,0,0,1-.41,3.25L122.52,29a19.69,19.69,0,0,0-.31,2.84,6.83,6.83,0,0,0,.08,1Zm.66-7.26c-3.54.13-5.3,1.14-5.3,3.05a1.86,1.86,0,0,0,.46,1.3,1.57,1.57,0,0,0,1.24.52,2.87,2.87,0,0,0,2.26-1.21A7.59,7.59,0,0,0,118.78,25.58Z" transform="translate(-3.58 -6.29)"/><path class="cls-1" d="M128.66,38.07h-4.33l3.38-20.21h3.94l-.44,2.69q1.62-2.89,4.13-2.9a4,4,0,0,1,3.43,1.7A7.34,7.34,0,0,1,140,23.81a11.87,11.87,0,0,1-1.79,6.56,5.29,5.29,0,0,1-4.53,2.78,4.24,4.24,0,0,1-2.41-.71,3.43,3.43,0,0,1-1.41-1.8Zm3.85-7.88c1.08,0,1.87-.82,2.36-2.45a16.43,16.43,0,0,0,.73-4.64,3,3,0,0,0-.48-1.71,1.62,1.62,0,0,0-1.44-.72,2.38,2.38,0,0,0-1.69.8,5.89,5.89,0,0,0-1.16,3,21.51,21.51,0,0,0-.39,3,2.87,2.87,0,0,0,.62,2A1.87,1.87,0,0,0,132.51,30.19Z" transform="translate(-3.58 -6.29)"/><path class="cls-1" d="M148.88,12.73l-1.2,7.16a4.32,4.32,0,0,1,3.81-2.37,4,4,0,0,1,3.32,1.61,7.39,7.39,0,0,1,1.24,4.59,11.63,11.63,0,0,1-1.88,6.62,5.76,5.76,0,0,1-5,2.83,4.59,4.59,0,0,1-4.42-2.7,12,12,0,0,0-1.16,2.37h-2.4a19.24,19.24,0,0,0,.51-2.74c.13-1,.39-2.66.79-5l2.06-12.38Zm-.37,17.44c1.1,0,1.92-.8,2.43-2.41a15.44,15.44,0,0,0,.78-4.76,2.85,2.85,0,0,0-.52-1.8,1.7,1.7,0,0,0-1.41-.68q-1.77,0-2.52,2.49a16.56,16.56,0,0,0-.74,4.71A2.89,2.89,0,0,0,147,29.5,1.73,1.73,0,0,0,148.51,30.17Z" transform="translate(-3.58 -6.29)"/><path class="cls-1" d="M171.6,26.09h-9.68c0,.5-.08.86-.08,1.11a3,3,0,0,0,.73,2.19,2.48,2.48,0,0,0,1.8.73,3.11,3.11,0,0,0,3-2.39l3.68.62a7.31,7.31,0,0,1-2.54,3.51,7.09,7.09,0,0,1-4.38,1.35,6.39,6.39,0,0,1-4.8-1.91,6.89,6.89,0,0,1-1.84-5,9.42,9.42,0,0,1,2.17-6.1,7,7,0,0,1,5.75-2.68,5.86,5.86,0,0,1,4.68,1.94,7.18,7.18,0,0,1,1.67,4.83A15,15,0,0,1,171.6,26.09Zm-9.37-2.47h5.41a6,6,0,0,0,.07-.9,2.34,2.34,0,0,0-.67-1.8,2.25,2.25,0,0,0-1.61-.63Q163,20.29,162.23,23.62Z" transform="translate(-3.58 -6.29)"/><path class="cls-1" d="M185.55,21.81l-3.35.64c-.27-1.39-1.25-2.09-2.94-2.09a2.13,2.13,0,0,0-1.39.45,1.28,1.28,0,0,0-.54,1,1,1,0,0,0,.48.92,6.71,6.71,0,0,0,2,.53,8.65,8.65,0,0,1,4,1.44,3.75,3.75,0,0,1,1.29,3.13,4.91,4.91,0,0,1-1.74,3.79,6.92,6.92,0,0,1-4.8,1.56,8.88,8.88,0,0,1-4.48-1.1,4.56,4.56,0,0,1-2.27-3.42l3.7-.43c.2,1.41,1.28,2.12,3.24,2.12a3,3,0,0,0,1.82-.46,1.35,1.35,0,0,0,.61-1.1,1,1,0,0,0-.47-.93,6.45,6.45,0,0,0-2-.56q-3.21-.54-4.26-1.74a4.14,4.14,0,0,1-1-2.84A4.92,4.92,0,0,1,174.9,19a6.21,6.21,0,0,1,4.4-1.48Q184.55,17.53,185.55,21.81Z" transform="translate(-3.58 -6.29)"/><path class="cls-1" d="M197.05,21.29h-3.56l-1,6a8.64,8.64,0,0,0-.16,1.28c0,.81.65,1.21,1.94,1.21a8.72,8.72,0,0,0,1.57-.12L195.26,33a18.22,18.22,0,0,1-3,.25c-3,0-4.46-1.21-4.46-3.62a19.42,19.42,0,0,1,.47-3.38l1-4.92H187l.57-3.43h2.51l1-4.13,3.79-.1-.72,4.23h3.47Z" transform="translate(-3.58 -6.29)"/><path class="cls-1" d="M206.67,21.26h-2.91l-1.92,11.58h-4.33l1.94-11.58h-1.76l.41-3.4H200c.28-2.24.95-3.81,2-4.7a6.66,6.66,0,0,1,4.46-1.34,11.7,11.7,0,0,1,1.84.15l-.25,3.46a9,9,0,0,0-1.32-.11,2.78,2.78,0,0,0-1.63.46,2.92,2.92,0,0,0-.79,2.08h2.92Z" transform="translate(-3.58 -6.29)"/><path class="cls-1" d="M215.58,32.84q0-.66,0-.93a8.07,8.07,0,0,1,.09-.95,5,5,0,0,0,.07-.7,4.9,4.9,0,0,1-4.81,2.95,4.61,4.61,0,0,1-3.24-1.16,3.81,3.81,0,0,1-1.26-2.91,4.56,4.56,0,0,1,2.2-3.93q2.19-1.47,8-1.74a3.76,3.76,0,0,0,.27-1.34,1.67,1.67,0,0,0-.53-1.3,2,2,0,0,0-1.43-.48,2.94,2.94,0,0,0-3,2.27l-3.94-.44q1.58-4.59,7.26-4.59a6.84,6.84,0,0,1,4.37,1.2,3.8,3.8,0,0,1,1.5,3.13,28.29,28.29,0,0,1-.41,3.25L220,29a18.34,18.34,0,0,0-.31,2.84,6.78,6.78,0,0,0,.07,1Zm.67-7.26c-3.54.13-5.31,1.14-5.31,3.05a1.87,1.87,0,0,0,.47,1.3,1.55,1.55,0,0,0,1.24.52,2.87,2.87,0,0,0,2.26-1.21A7.69,7.69,0,0,0,216.25,25.58Z" transform="translate(-3.58 -6.29)"/><path class="cls-1" d="M232.81,22a4.79,4.79,0,0,0-2,.36,3.77,3.77,0,0,0-1.44,1.32,6.68,6.68,0,0,0-.95,2.12c-.2.79-.44,2.06-.72,3.82l-.54,3.24h-4.51l2.51-15h4.18l-.56,3.45A9.9,9.9,0,0,1,230.11,19a3.23,3.23,0,0,1,1.36-1.06,5.28,5.28,0,0,1,1.8-.26Z" transform="translate(-3.58 -6.29)"/><path class="cls-1" d="M247.35,26.09h-9.68a10.14,10.14,0,0,0-.09,1.11,2.93,2.93,0,0,0,.74,2.19,2.48,2.48,0,0,0,1.79.73,3.1,3.1,0,0,0,3-2.39l3.69.62a7.27,7.27,0,0,1-2.55,3.51,7.09,7.09,0,0,1-4.38,1.35,6.39,6.39,0,0,1-4.8-1.91,6.89,6.89,0,0,1-1.84-5,9.42,9.42,0,0,1,2.17-6.1,7.06,7.06,0,0,1,5.75-2.68,5.84,5.84,0,0,1,4.68,1.94,7.13,7.13,0,0,1,1.67,4.83A16.84,16.84,0,0,1,247.35,26.09ZM238,23.62h5.4a6.11,6.11,0,0,0,.08-.9,2.38,2.38,0,0,0-.67-1.8,2.29,2.29,0,0,0-1.62-.63Q238.7,20.29,238,23.62Z" transform="translate(-3.58 -6.29)"/><path class="cls-1" d="M261.29,21.81l-3.34.64c-.28-1.39-1.26-2.09-2.95-2.09a2.08,2.08,0,0,0-1.38.45,1.26,1.26,0,0,0-.55,1,1,1,0,0,0,.48.92,6.8,6.8,0,0,0,2,.53,8.65,8.65,0,0,1,4,1.44,3.75,3.75,0,0,1,1.29,3.13,4.94,4.94,0,0,1-1.73,3.79,6.94,6.94,0,0,1-4.81,1.56,8.88,8.88,0,0,1-4.48-1.1,4.52,4.52,0,0,1-2.26-3.42l3.69-.43c.2,1.41,1.28,2.12,3.25,2.12a3,3,0,0,0,1.81-.46,1.37,1.37,0,0,0,.62-1.1,1,1,0,0,0-.48-.93,6.46,6.46,0,0,0-2-.56q-3.22-.54-4.27-1.74a4.14,4.14,0,0,1-1-2.84A4.89,4.89,0,0,1,250.65,19,6.17,6.17,0,0,1,255,17.53Q260.29,17.53,261.29,21.81Z" transform="translate(-3.58 -6.29)"/><path class="cls-2" d="M10.82,37.92s18.24-.15,30.55-10.28a17.49,17.49,0,0,1,10.2-4.13,5.42,5.42,0,0,1,3.19.55.79.79,0,0,1,.05,1.24C52.07,27.69,37.58,39.08,10.82,37.92Z" transform="translate(-3.58 -6.29)"/><path class="cls-3" d="M49.68,9.27c-4.39,3.41-8.64,6.39-12.67,9L5.82,18l1.24,1.7s15.76,1.78,21.14,3.91C13.58,31.82,3.58,34.45,3.58,34.45c30.59.11,56.71-27.06,56.71-27.06-.28-1-1.66-1.19-3.2-1.07A13.93,13.93,0,0,0,49.68,9.27Z" transform="translate(-3.58 -6.29)"/></svg>